<?xml version="1.0" standalone="no"?><svg xmlns:xlink="http://www.w3.org/1999/xlink" xmlns="http://www.w3.org/2000/svg" viewBox="0 0 1000 529.4150890081943" preserveAspectRatio="xMaxYMax slice"><g transform="scale(1.1302627860977676)"><rect x="0" y="0" width="884.7555555555556" height="468.4" fill="#ffffff"/><g transform="translate(0,0) scale(2.602) rotate(0)"><rect width="20" height="2" fill="#b6c3f6"/><rect y="4" width="20" height="2" fill="#b6c3f6"/><rect y="8" width="20" height="2" fill="#b6c3f6"/><rect y="12" width="20" height="2" fill="#b6c3f6"/><rect y="16" width="20" height="2" fill="#b6c3f6"/></g><g transform="translate(52.04,0) scale(2.602) rotate(0)"><path d="M10 1L12.2451 7.90983H19.5106L13.6327 12.1803L15.8779 19.0902L10 14.8197L4.12215 19.0902L6.36729 12.1803L0.489441 7.90983H7.75487L10 1Z" fill="#fca7c6"/></g><g transform="translate(104.09,0) scale(2.602) rotate(0)"><rect width="20" height="10" fill="#eef5fe"/></g><g transform="translate(156.13,0) scale(2.602) rotate(0)"><path d="M10 1L12.2451 7.90983H19.5106L13.6327 12.1803L15.8779 19.0902L10 14.8197L4.12215 19.0902L6.36729 12.1803L0.489441 7.90983H7.75487L10 1Z" fill="#385ae5"/></g><g transform="translate(208.18,0) scale(2.602) rotate(0)"><path d="M10 0H20L0 20V10L10 0Z" fill="#eef5fe"/><path d="M20 10V20H10L20 10Z" fill="#eef5fe"/></g><g transform="translate(260.22,0) scale(2.602) rotate(0)"><path d="M5 0H10L5 5L0 10V5L5 0Z" fill="#cad3f8"/><path d="M20 15V20H15L20 15Z" fill="#cad3f8"/><path d="M20 5V10L15 15L10 20H5L20 5Z" fill="#cad3f8"/><path d="M15 0H20L5 15.0002L0 20.0002V15.0002L15 0Z" fill="#cad3f8"/></g><rect x="312.26666666666665" y="0" width="52.044444444444444" height="52.044444444444444" fill="#ffffff"/><path d="M 312.27 0 A 26.02 26.02 0 0 1  338.28999999999996 26.02 L 312.27 0 A 26.02 26.02 0 0 0 338.28999999999996 26.02" fill="#fedce8"/><g transform="translate(338.29,0) scale(1.301) rotate(0)"><rect width="20" height="10" fill="#ecf4fe"/></g><g transform="translate(312.27,26.02) scale(1.301) rotate(0)"><path d="M19.9981 0.00193429L3.72652 -7.68637e-07L8.4784 4.75382L0 13.2345L6.76585 20L15.2462 11.5208L20 16.2746L19.9981 0.00193429Z" fill="#eaf3fe"/></g><g transform="translate(338.29,26.02) scale(1.301) rotate(0)"><path fill-rule="evenodd" clip-rule="evenodd" d="M10 20C15.5228 20 20 15.5228 20 10C20 4.47715 15.5228 0 10 0C4.47715 0 0 4.47715 0 10C0 15.5228 4.47715 20 10 20ZM10 17C13.866 17 17 13.866 17 10C17 6.13401 13.866 3 10 3C6.13401 3 3 6.13401 3 10C3 13.866 6.13401 17 10 17Z" fill="#7088ec"/></g><g transform="translate(364.31,0) scale(2.602) rotate(0)"><path d="M10 5L5 0L0 5L5 10L0 15L5 20L10 15L15 20L20 15L15 10L20 5L15 0L10 5Z" fill="#4c6ae8"/></g><rect x="416.35555555555555" y="0" width="52.044444444444444" height="52.044444444444444" fill="#ffffff"/><g transform="translate(416.36,0) scale(1.301) rotate(0)"><rect width="20" height="2" fill="#3355e5"/><rect y="4" width="20" height="2" fill="#3355e5"/><rect y="8" width="20" height="2" fill="#3355e5"/><rect y="12" width="20" height="2" fill="#3355e5"/><rect y="16" width="20" height="2" fill="#3355e5"/></g><g transform="translate(442.38,0) scale(1.301) rotate(0)"><rect width="20" height="2" fill="#fedfea"/><rect y="4" width="20" height="2" fill="#fedfea"/><rect y="8" width="20" height="2" fill="#fedfea"/><rect y="12" width="20" height="2" fill="#fedfea"/><rect y="16" width="20" height="2" fill="#fedfea"/></g><g transform="translate(416.36,26.02) scale(1.301) rotate(0)"><path d="M10 1L12.2451 7.90983H19.5106L13.6327 12.1803L15.8779 19.0902L10 14.8197L4.12215 19.0902L6.36729 12.1803L0.489441 7.90983H7.75487L10 1Z" fill="#8b9ff0"/></g><g transform="translate(442.38,26.02) scale(1.301) rotate(0)"><rect width="20" height="2" fill="#fa71a3"/><rect y="4" width="20" height="2" fill="#fa71a3"/><rect y="8" width="20" height="2" fill="#fa71a3"/><rect y="12" width="20" height="2" fill="#fa71a3"/><rect y="16" width="20" height="2" fill="#fa71a3"/></g><rect x="468.4" y="0" width="52.044444444444444" height="52.044444444444444" fill="#ffffff"/><g transform="translate(468.4,0) scale(1.301) rotate(0)"><rect width="20" height="2" fill="#f83f83"/><rect y="4" width="20" height="2" fill="#f83f83"/><rect y="8" width="20" height="2" fill="#f83f83"/><rect y="12" width="20" height="2" fill="#f83f83"/><rect y="16" width="20" height="2" fill="#f83f83"/></g><rect x="494.42" y="0" width="26.02" height="26.02" fill="#f4f9ff"/><path d="M 468.4 26.02 A 26.02 26.02 0 0 1  494.41999999999996 52.04 L 468.4 26.02 A 26.02 26.02 0 0 0 494.41999999999996 52.04" fill="#ffe8ed"/><g transform="translate(494.42,26.02) scale(1.301) rotate(0)"><rect width="2" height="20" fill="#dbe1fa"/><rect x="4" width="2" height="20" fill="#dbe1fa"/><rect x="8" width="2" height="20" fill="#dbe1fa"/><rect x="12" width="2" height="20" fill="#dbe1fa"/><rect x="16" width="2" height="20" fill="#dbe1fa"/></g><rect x="520.4444444444445" y="0" width="52.044444444444444" height="52.044444444444444" fill="#ffffff"/><g transform="translate(520.44,0) scale(1.301) rotate(0)"><path d="M10 5L5 0L0 5L5 10L0 15L5 20L10 15L15 20L20 15L15 10L20 5L15 0L10 5Z" fill="#728aed"/></g><g transform="translate(546.47,0) scale(1.301) rotate(0)"><rect width="20" height="10" fill="#4867e7"/></g><g transform="translate(520.44,26.02) scale(1.301) rotate(0)"><path d="M10 0H20L0 20V10L10 0Z" fill="#fffbfc"/><path d="M20 10V20H10L20 10Z" fill="#fffbfc"/></g><rect x="546.47" y="26.02" width="26.02" height="26.02" fill="#4f6de8"/><g transform="translate(572.49,0) scale(2.602) rotate(0)"><rect width="20" height="10" fill="#fcb5cf"/></g><rect x="624.5333333333333" y="0" width="52.044444444444444" height="52.044444444444444" fill="#ffffff"/><g transform="translate(624.53,0) scale(1.301) rotate(0)"><path d="M19.9981 0.00193429L3.72652 -7.68637e-07L8.4784 4.75382L0 13.2345L6.76585 20L15.2462 11.5208L20 16.2746L19.9981 0.00193429Z" fill="#f83d82"/></g><g transform="translate(650.56,0) scale(1.301) rotate(0)"><path d="M19.9981 0.00193429L3.72652 -7.68637e-07L8.4784 4.75382L0 13.2345L6.76585 20L15.2462 11.5208L20 16.2746L19.9981 0.00193429Z" fill="#95a7f1"/></g><g transform="translate(624.53,26.02) scale(1.301) rotate(0)"><rect width="20" height="10" fill="#d5dcfa"/></g><path d="M 650.56 26.02 A 26.02 26.02 0 0 1  676.5799999999999 52.04 L 650.56 26.02 A 26.02 26.02 0 0 0 676.5799999999999 52.04" fill="#fffefe"/><g transform="translate(676.58,0) scale(2.602) rotate(0)"><path d="M10 5L5 0L0 5L5 10L0 15L5 20L10 15L15 20L20 15L15 10L20 5L15 0L10 5Z" fill="#e4effe"/></g><rect x="728.62" y="0" width="52.04" height="52.04" fill="#ff829f"/><g transform="translate(780.67,0) scale(2.602) rotate(0)"><rect width="20" height="2" fill="#e5f0fe"/><rect y="4" width="20" height="2" fill="#e5f0fe"/><rect y="8" width="20" height="2" fill="#e5f0fe"/><rect y="12" width="20" height="2" fill="#e5f0fe"/><rect y="16" width="20" height="2" fill="#e5f0fe"/></g><g transform="translate(832.71,0) scale(2.602) rotate(0)"><path d="M10 1L12.2451 7.90983H19.5106L13.6327 12.1803L15.8779 19.0902L10 14.8197L4.12215 19.0902L6.36729 12.1803L0.489441 7.90983H7.75487L10 1Z" fill="#ff678b"/></g><g transform="translate(0,52.04) scale(2.602) rotate(0)"><rect width="20" height="2" fill="#f9679d"/><rect y="4" width="20" height="2" fill="#f9679d"/><rect y="8" width="20" height="2" fill="#f9679d"/><rect y="12" width="20" height="2" fill="#f9679d"/><rect y="16" width="20" height="2" fill="#f9679d"/></g><rect x="52.044444444444444" y="52.044444444444444" width="52.044444444444444" height="52.044444444444444" fill="#ffffff"/><g transform="translate(52.04,52.04) scale(1.301) rotate(0)"><rect width="2" height="20" fill="#fffffe"/><rect x="4" width="2" height="20" fill="#fffffe"/><rect x="8" width="2" height="20" fill="#fffffe"/><rect x="12" width="2" height="20" fill="#fffffe"/><rect x="16" width="2" height="20" fill="#fffffe"/></g><g transform="translate(78.07,52.04) scale(1.301) rotate(0)"><path fill-rule="evenodd" clip-rule="evenodd" d="M10 20C15.5228 20 20 15.5228 20 10C20 4.47715 15.5228 0 10 0C4.47715 0 0 4.47715 0 10C0 15.5228 4.47715 20 10 20ZM10 17C13.866 17 17 13.866 17 10C17 6.13401 13.866 3 10 3C6.13401 3 3 6.13401 3 10C3 13.866 6.13401 17 10 17Z" fill="#fffdfa"/></g><g transform="translate(52.04,78.07) scale(1.301) rotate(0)"><path d="M10 5L5 0L0 5L5 10L0 15L5 20L10 15L15 20L20 15L15 10L20 5L15 0L10 5Z" fill="#fffefc"/></g><g transform="translate(78.07,78.07) scale(1.301) rotate(0)"><path d="M10 1L12.2451 7.90983H19.5106L13.6327 12.1803L15.8779 19.0902L10 14.8197L4.12215 19.0902L6.36729 12.1803L0.489441 7.90983H7.75487L10 1Z" fill="#f4f9ff"/></g><path d="M 104.09 104.08 A 52.04 52.04 0 0 1  156.13 52.04 L 104.09 104.08 A 52.04 52.04 0 0 0 156.13 52.04" fill="#ffa6bb"/><g transform="translate(156.13,52.04) scale(2.602) rotate(0)"><path fill-rule="evenodd" clip-rule="evenodd" d="M10 20C15.5228 20 20 15.5228 20 10C20 4.47715 15.5228 0 10 0C4.47715 0 0 4.47715 0 10C0 15.5228 4.47715 20 10 20ZM10 17C13.866 17 17 13.866 17 10C17 6.13401 13.866 3 10 3C6.13401 3 3 6.13401 3 10C3 13.866 6.13401 17 10 17Z" fill="#f8fbff"/></g><g transform="translate(208.18,52.04) scale(2.602) rotate(0)"><path d="M19.9981 0.00193429L3.72652 -7.68637e-07L8.4784 4.75382L0 13.2345L6.76585 20L15.2462 11.5208L20 16.2746L19.9981 0.00193429Z" fill="#fbfdff"/></g><g transform="translate(260.22,52.04) scale(2.602) rotate(0)"><path fill-rule="evenodd" clip-rule="evenodd" d="M10 20C15.5228 20 20 15.5228 20 10C20 4.47715 15.5228 0 10 0C4.47715 0 0 4.47715 0 10C0 15.5228 4.47715 20 10 20ZM10 17C13.866 17 17 13.866 17 10C17 6.13401 13.866 3 10 3C6.13401 3 3 6.13401 3 10C3 13.866 6.13401 17 10 17Z" fill="#f95290"/></g><g transform="translate(312.27,52.04) scale(2.602) rotate(0)"><rect width="2" height="20" fill="#fca7c6"/><rect x="4" width="2" height="20" fill="#fca7c6"/><rect x="8" width="2" height="20" fill="#fca7c6"/><rect x="12" width="2" height="20" fill="#fca7c6"/><rect x="16" width="2" height="20" fill="#fca7c6"/></g><g transform="translate(364.31,52.04) scale(2.602) rotate(0)"><path d="M19.9981 0.00193429L3.72652 -7.68637e-07L8.4784 4.75382L0 13.2345L6.76585 20L15.2462 11.5208L20 16.2746L19.9981 0.00193429Z" fill="#ff9db4"/></g><g transform="translate(416.36,52.04) scale(2.602) rotate(0)"><path d="M5 0H10L5 5L0 10V5L5 0Z" fill="#fffdfb"/><path d="M20 15V20H15L20 15Z" fill="#fffdfb"/><path d="M20 5V10L15 15L10 20H5L20 5Z" fill="#fffdfb"/><path d="M15 0H20L5 15.0002L0 20.0002V15.0002L15 0Z" fill="#fffdfb"/></g><rect x="468.4" y="52.044444444444444" width="52.044444444444444" height="52.044444444444444" fill="#ffffff"/><g transform="translate(468.4,52.04) scale(1.301) rotate(0)"><path fill-rule="evenodd" clip-rule="evenodd" d="M10 20C15.5228 20 20 15.5228 20 10C20 4.47715 15.5228 0 10 0C4.47715 0 0 4.47715 0 10C0 15.5228 4.47715 20 10 20ZM10 17C13.866 17 17 13.866 17 10C17 6.13401 13.866 3 10 3C6.13401 3 3 6.13401 3 10C3 13.866 6.13401 17 10 17Z" fill="#fffdfb"/></g><rect x="494.42" y="52.04" width="26.02" height="26.02" fill="#d0d8f9"/><g transform="translate(468.4,78.07) scale(1.301) rotate(0)"><rect width="2" height="20" fill="#fedae7"/><rect x="4" width="2" height="20" fill="#fedae7"/><rect x="8" width="2" height="20" fill="#fedae7"/><rect x="12" width="2" height="20" fill="#fedae7"/><rect x="16" width="2" height="20" fill="#fedae7"/></g><g transform="translate(494.42,78.07) scale(1.301) rotate(0)"><path fill-rule="evenodd" clip-rule="evenodd" d="M10 20C15.5228 20 20 15.5228 20 10C20 4.47715 15.5228 0 10 0C4.47715 0 0 4.47715 0 10C0 15.5228 4.47715 20 10 20ZM10 17C13.866 17 17 13.866 17 10C17 6.13401 13.866 3 10 3C6.13401 3 3 6.13401 3 10C3 13.866 6.13401 17 10 17Z" fill="#fa7baa"/></g><g transform="translate(520.44,52.04) scale(2.602) rotate(0)"><path d="M19.9981 0.00193429L3.72652 -7.68637e-07L8.4784 4.75382L0 13.2345L6.76585 20L15.2462 11.5208L20 16.2746L19.9981 0.00193429Z" fill="#fefeff"/></g><g transform="translate(572.49,52.04) scale(2.602) rotate(0)"><path fill-rule="evenodd" clip-rule="evenodd" d="M10 20C15.5228 20 20 15.5228 20 10C20 4.47715 15.5228 0 10 0C4.47715 0 0 4.47715 0 10C0 15.5228 4.47715 20 10 20ZM10 17C13.866 17 17 13.866 17 10C17 6.13401 13.866 3 10 3C6.13401 3 3 6.13401 3 10C3 13.866 6.13401 17 10 17Z" fill="#fb85b0"/></g><rect x="624.53" y="52.04" width="52.04" height="52.04" fill="#3f60e6"/><g transform="translate(676.58,52.04) scale(2.602) rotate(0)"><path fill-rule="evenodd" clip-rule="evenodd" d="M10 20C15.5228 20 20 15.5228 20 10C20 4.47715 15.5228 0 10 0C4.47715 0 0 4.47715 0 10C0 15.5228 4.47715 20 10 20ZM10 17C13.866 17 17 13.866 17 10C17 6.13401 13.866 3 10 3C6.13401 3 3 6.13401 3 10C3 13.866 6.13401 17 10 17Z" fill="#ff93ad"/></g><g transform="translate(728.62,52.04) scale(2.602) rotate(0)"><rect width="2" height="20" fill="#f4f9ff"/><rect x="4" width="2" height="20" fill="#f4f9ff"/><rect x="8" width="2" height="20" fill="#f4f9ff"/><rect x="12" width="2" height="20" fill="#f4f9ff"/><rect x="16" width="2" height="20" fill="#f4f9ff"/></g><g transform="translate(780.67,52.04) scale(2.602) rotate(0)"><path d="M19.9981 0.00193429L3.72652 -7.68637e-07L8.4784 4.75382L0 13.2345L6.76585 20L15.2462 11.5208L20 16.2746L19.9981 0.00193429Z" fill="#4b69e8"/></g><g transform="translate(832.71,52.04) scale(2.602) rotate(0)"><path d="M10 5L5 0L0 5L5 10L0 15L5 20L10 15L15 20L20 15L15 10L20 5L15 0L10 5Z" fill="#ffeff3"/></g><g transform="translate(0,104.09) scale(2.602) rotate(0)"><rect width="2" height="20" fill="#ffffff"/><rect x="4" width="2" height="20" fill="#ffffff"/><rect x="8" width="2" height="20" fill="#ffffff"/><rect x="12" width="2" height="20" fill="#ffffff"/><rect x="16" width="2" height="20" fill="#ffffff"/></g><rect x="52.044444444444444" y="104.08888888888889" width="52.044444444444444" height="52.044444444444444" fill="#ffffff"/><g transform="translate(52.04,104.09) scale(1.301) rotate(0)"><rect width="20" height="2" fill="#ff7d9c"/><rect y="4" width="20" height="2" fill="#ff7d9c"/><rect y="8" width="20" height="2" fill="#ff7d9c"/><rect y="12" width="20" height="2" fill="#ff7d9c"/><rect y="16" width="20" height="2" fill="#ff7d9c"/></g><path d="M 78.07 130.11 A 26.02 26.02 0 0 1  104.08999999999999 104.09 L 78.07 130.11 A 26.02 26.02 0 0 0 104.08999999999999 104.09" fill="#ff3666"/><g transform="translate(52.04,130.11) scale(1.301) rotate(0)"><rect width="20" height="2" fill="#e7f1fe"/><rect y="4" width="20" height="2" fill="#e7f1fe"/><rect y="8" width="20" height="2" fill="#e7f1fe"/><rect y="12" width="20" height="2" fill="#e7f1fe"/><rect y="16" width="20" height="2" fill="#e7f1fe"/></g><g transform="translate(78.07,130.11) scale(1.301) rotate(0)"><path d="M10 1L12.2451 7.90983H19.5106L13.6327 12.1803L15.8779 19.0902L10 14.8197L4.12215 19.0902L6.36729 12.1803L0.489441 7.90983H7.75487L10 1Z" fill="#fffffe"/></g><path d="M 104.09 156.13 A 52.04 52.04 0 0 1  156.13 104.09 L 104.09 156.13 A 52.04 52.04 0 0 0 156.13 104.09" fill="#f1f7ff"/><g transform="translate(156.13,104.09) scale(2.602) rotate(0)"><path d="M5 0H10L5 5L0 10V5L5 0Z" fill="#395be5"/><path d="M20 15V20H15L20 15Z" fill="#395be5"/><path d="M20 5V10L15 15L10 20H5L20 5Z" fill="#395be5"/><path d="M15 0H20L5 15.0002L0 20.0002V15.0002L15 0Z" fill="#395be5"/></g><g transform="translate(208.18,104.09) scale(2.602) rotate(0)"><path d="M19.9981 0.00193429L3.72652 -7.68637e-07L8.4784 4.75382L0 13.2345L6.76585 20L15.2462 11.5208L20 16.2746L19.9981 0.00193429Z" fill="#fb9fc1"/></g><g transform="translate(260.22,104.09) scale(2.602) rotate(0)"><path d="M19.9981 0.00193429L3.72652 -7.68637e-07L8.4784 4.75382L0 13.2345L6.76585 20L15.2462 11.5208L20 16.2746L19.9981 0.00193429Z" fill="#fb89b3"/></g><rect x="312.27" y="104.09" width="52.04" height="52.04" fill="#e4effe"/><rect x="364.31111111111113" y="104.08888888888889" width="52.044444444444444" height="52.044444444444444" fill="#ffffff"/><g transform="translate(364.31,104.09) scale(1.301) rotate(0)"><path d="M10 1L12.2451 7.90983H19.5106L13.6327 12.1803L15.8779 19.0902L10 14.8197L4.12215 19.0902L6.36729 12.1803L0.489441 7.90983H7.75487L10 1Z" fill="#fb98bd"/></g><g transform="translate(390.33,104.09) scale(1.301) rotate(0)"><rect width="2" height="20" fill="#fffefe"/><rect x="4" width="2" height="20" fill="#fffefe"/><rect x="8" width="2" height="20" fill="#fffefe"/><rect x="12" width="2" height="20" fill="#fffefe"/><rect x="16" width="2" height="20" fill="#fffefe"/></g><g transform="translate(364.31,130.11) scale(1.301) rotate(0)"><path fill-rule="evenodd" clip-rule="evenodd" d="M10 20C15.5228 20 20 15.5228 20 10C20 4.47715 15.5228 0 10 0C4.47715 0 0 4.47715 0 10C0 15.5228 4.47715 20 10 20ZM10 17C13.866 17 17 13.866 17 10C17 6.13401 13.866 3 10 3C6.13401 3 3 6.13401 3 10C3 13.866 6.13401 17 10 17Z" fill="#ffd7e1"/></g><g transform="translate(390.33,130.11) scale(1.301) rotate(0)"><rect width="2" height="20" fill="#f0f6fe"/><rect x="4" width="2" height="20" fill="#f0f6fe"/><rect x="8" width="2" height="20" fill="#f0f6fe"/><rect x="12" width="2" height="20" fill="#f0f6fe"/><rect x="16" width="2" height="20" fill="#f0f6fe"/></g><g transform="translate(416.36,104.09) scale(2.602) rotate(0)"><rect width="20" height="10" fill="#fedbe7"/></g><rect x="468.4" y="104.08888888888889" width="52.044444444444444" height="52.044444444444444" fill="#ffffff"/><g transform="translate(468.4,104.09) scale(1.301) rotate(0)"><path d="M10 5L5 0L0 5L5 10L0 15L5 20L10 15L15 20L20 15L15 10L20 5L15 0L10 5Z" fill="#e2e7fb"/></g><path d="M 494.42 130.11 A 26.02 26.02 0 0 1  520.44 104.09 L 494.42 130.11 A 26.02 26.02 0 0 0 520.44 104.09" fill="#fa77a7"/><g transform="translate(468.4,130.11) scale(1.301) rotate(0)"><path d="M10 1L12.2451 7.90983H19.5106L13.6327 12.1803L15.8779 19.0902L10 14.8197L4.12215 19.0902L6.36729 12.1803L0.489441 7.90983H7.75487L10 1Z" fill="#a2b2f3"/></g><path d="M 494.42 130.11 A 26.02 26.02 0 0 1  520.44 156.13000000000002 L 494.42 130.11 A 26.02 26.02 0 0 0 520.44 156.13000000000002" fill="#f0f6fe"/><g transform="translate(520.44,104.09) scale(2.602) rotate(0)"><path d="M10 0H20L0 20V10L10 0Z" fill="#fdfeff"/><path d="M20 10V20H10L20 10Z" fill="#fdfeff"/></g><g transform="translate(572.49,104.09) scale(2.602) rotate(0)"><rect width="20" height="2" fill="#fff7f9"/><rect y="4" width="20" height="2" fill="#fff7f9"/><rect y="8" width="20" height="2" fill="#fff7f9"/><rect y="12" width="20" height="2" fill="#fff7f9"/><rect y="16" width="20" height="2" fill="#fff7f9"/></g><rect x="624.53" y="104.09" width="52.04" height="52.04" fill="#fffefc"/><rect x="676.5777777777778" y="104.08888888888889" width="52.044444444444444" height="52.044444444444444" fill="#ffffff"/><g transform="translate(676.58,104.09) scale(1.301) rotate(0)"><path d="M10 1L12.2451 7.90983H19.5106L13.6327 12.1803L15.8779 19.0902L10 14.8197L4.12215 19.0902L6.36729 12.1803L0.489441 7.90983H7.75487L10 1Z" fill="#fb98bc"/></g><g transform="translate(702.6,104.09) scale(1.301) rotate(0)"><path d="M19.9981 0.00193429L3.72652 -7.68637e-07L8.4784 4.75382L0 13.2345L6.76585 20L15.2462 11.5208L20 16.2746L19.9981 0.00193429Z" fill="#fffffe"/></g><g transform="translate(676.58,130.11) scale(1.301) rotate(0)"><path d="M19.9981 0.00193429L3.72652 -7.68637e-07L8.4784 4.75382L0 13.2345L6.76585 20L15.2462 11.5208L20 16.2746L19.9981 0.00193429Z" fill="#fffefc"/></g><g transform="translate(702.6,130.11) scale(1.301) rotate(0)"><path d="M19.9981 0.00193429L3.72652 -7.68637e-07L8.4784 4.75382L0 13.2345L6.76585 20L15.2462 11.5208L20 16.2746L19.9981 0.00193429Z" fill="#fb87b1"/></g><g transform="translate(728.62,104.09) scale(2.602) rotate(0)"><path fill-rule="evenodd" clip-rule="evenodd" d="M10 20C15.5228 20 20 15.5228 20 10C20 4.47715 15.5228 0 10 0C4.47715 0 0 4.47715 0 10C0 15.5228 4.47715 20 10 20ZM10 17C13.866 17 17 13.866 17 10C17 6.13401 13.866 3 10 3C6.13401 3 3 6.13401 3 10C3 13.866 6.13401 17 10 17Z" fill="#607bea"/></g><g transform="translate(780.67,104.09) scale(2.602) rotate(0)"><rect width="2" height="20" fill="#fa70a2"/><rect x="4" width="2" height="20" fill="#fa70a2"/><rect x="8" width="2" height="20" fill="#fa70a2"/><rect x="12" width="2" height="20" fill="#fa70a2"/><rect x="16" width="2" height="20" fill="#fa70a2"/></g><g transform="translate(832.71,104.09) scale(2.602) rotate(0)"><path d="M10 5L5 0L0 5L5 10L0 15L5 20L10 15L15 20L20 15L15 10L20 5L15 0L10 5Z" fill="#ffa0b7"/></g><rect x="0" y="156.13333333333333" width="52.044444444444444" height="52.044444444444444" fill="#ffffff"/><g transform="translate(0,156.13) scale(1.301) rotate(0)"><path d="M19.9981 0.00193429L3.72652 -7.68637e-07L8.4784 4.75382L0 13.2345L6.76585 20L15.2462 11.5208L20 16.2746L19.9981 0.00193429Z" fill="#fffdfb"/></g><g transform="translate(26.02,156.13) scale(1.301) rotate(0)"><path d="M10 1L12.2451 7.90983H19.5106L13.6327 12.1803L15.8779 19.0902L10 14.8197L4.12215 19.0902L6.36729 12.1803L0.489441 7.90983H7.75487L10 1Z" fill="#ffbfce"/></g><rect x="0" y="182.16" width="26.02" height="26.02" fill="#fdcee0"/><g transform="translate(26.02,182.16) scale(1.301) rotate(0)"><path d="M5 0H10L5 5L0 10V5L5 0Z" fill="#758ced"/><path d="M20 15V20H15L20 15Z" fill="#758ced"/><path d="M20 5V10L15 15L10 20H5L20 5Z" fill="#758ced"/><path d="M15 0H20L5 15.0002L0 20.0002V15.0002L15 0Z" fill="#758ced"/></g><g transform="translate(52.04,156.13) scale(2.602) rotate(0)"><path d="M10 0H20L0 20V10L10 0Z" fill="#fffefe"/><path d="M20 10V20H10L20 10Z" fill="#fffefe"/></g><rect x="104.09" y="156.13" width="52.04" height="52.04" fill="#f3f8ff"/><rect x="156.13333333333333" y="156.13333333333333" width="52.044444444444444" height="52.044444444444444" fill="#ffffff"/><g transform="translate(156.13,156.13) scale(1.301) rotate(0)"><rect width="20" height="2" fill="#fffefe"/><rect y="4" width="20" height="2" fill="#fffefe"/><rect y="8" width="20" height="2" fill="#fffefe"/><rect y="12" width="20" height="2" fill="#fffefe"/><rect y="16" width="20" height="2" fill="#fffefe"/></g><rect x="182.16" y="156.13" width="26.02" height="26.02" fill="#fffffe"/><g transform="translate(156.13,182.16) scale(1.301) rotate(0)"><rect width="20" height="10" fill="#fca6c6"/></g><g transform="translate(182.16,182.16) scale(1.301) rotate(0)"><path d="M10 5L5 0L0 5L5 10L0 15L5 20L10 15L15 20L20 15L15 10L20 5L15 0L10 5Z" fill="#fdc8db"/></g><g transform="translate(208.18,156.13) scale(2.602) rotate(0)"><path d="M5 0H10L5 5L0 10V5L5 0Z" fill="#ff577f"/><path d="M20 15V20H15L20 15Z" fill="#ff577f"/><path d="M20 5V10L15 15L10 20H5L20 5Z" fill="#ff577f"/><path d="M15 0H20L5 15.0002L0 20.0002V15.0002L15 0Z" fill="#ff577f"/></g><path d="M 260.22 208.17 A 52.04 52.04 0 0 1  312.26000000000005 156.13 L 260.22 208.17 A 52.04 52.04 0 0 0 312.26000000000005 156.13" fill="#ff3d6b"/><path d="M 312.27 208.17 A 52.04 52.04 0 0 1  364.31 156.13 L 312.27 208.17 A 52.04 52.04 0 0 0 364.31 156.13" fill="#ff6086"/><rect x="364.31111111111113" y="156.13333333333333" width="52.044444444444444" height="52.044444444444444" fill="#ffffff"/><g transform="translate(364.31,156.13) scale(1.301) rotate(0)"><path d="M10 0H20L0 20V10L10 0Z" fill="#fffefd"/><path d="M20 10V20H10L20 10Z" fill="#fffefd"/></g><g transform="translate(390.33,156.13) scale(1.301) rotate(0)"><rect width="2" height="20" fill="#ffd7e1"/><rect x="4" width="2" height="20" fill="#ffd7e1"/><rect x="8" width="2" height="20" fill="#ffd7e1"/><rect x="12" width="2" height="20" fill="#ffd7e1"/><rect x="16" width="2" height="20" fill="#ffd7e1"/></g><path d="M 364.31 182.16 A 26.02 26.02 0 0 1  390.33 208.18 L 364.31 182.16 A 26.02 26.02 0 0 0 390.33 208.18" fill="#ff668b"/><g transform="translate(390.33,182.16) scale(1.301) rotate(0)"><path d="M10 1L12.2451 7.90983H19.5106L13.6327 12.1803L15.8779 19.0902L10 14.8197L4.12215 19.0902L6.36729 12.1803L0.489441 7.90983H7.75487L10 1Z" fill="#ff97b0"/></g><g transform="translate(416.36,156.13) scale(2.602) rotate(0)"><rect width="2" height="20" fill="#2045e2"/><rect x="4" width="2" height="20" fill="#2045e2"/><rect x="8" width="2" height="20" fill="#2045e2"/><rect x="12" width="2" height="20" fill="#2045e2"/><rect x="16" width="2" height="20" fill="#2045e2"/></g><rect x="468.4" y="156.13" width="52.04" height="52.04" fill="#f7faff"/><rect x="520.44" y="156.13" width="52.04" height="52.04" fill="#ff7697"/><g transform="translate(572.49,156.13) scale(2.602) rotate(0)"><path d="M10 5L5 0L0 5L5 10L0 15L5 20L10 15L15 20L20 15L15 10L20 5L15 0L10 5Z" fill="#ff426f"/></g><g transform="translate(624.53,156.13) scale(2.602) rotate(0)"><path fill-rule="evenodd" clip-rule="evenodd" d="M10 20C15.5228 20 20 15.5228 20 10C20 4.47715 15.5228 0 10 0C4.47715 0 0 4.47715 0 10C0 15.5228 4.47715 20 10 20ZM10 17C13.866 17 17 13.866 17 10C17 6.13401 13.866 3 10 3C6.13401 3 3 6.13401 3 10C3 13.866 6.13401 17 10 17Z" fill="#a2b1f3"/></g><g transform="translate(676.58,156.13) scale(2.602) rotate(0)"><rect width="20" height="10" fill="#91a4f1"/></g><g transform="translate(728.62,156.13) scale(2.602) rotate(0)"><path d="M10 1L12.2451 7.90983H19.5106L13.6327 12.1803L15.8779 19.0902L10 14.8197L4.12215 19.0902L6.36729 12.1803L0.489441 7.90983H7.75487L10 1Z" fill="#fffdfb"/></g><rect x="780.6666666666666" y="156.13333333333333" width="52.044444444444444" height="52.044444444444444" fill="#ffffff"/><g transform="translate(780.67,156.13) scale(1.301) rotate(0)"><rect width="2" height="20" fill="#ffc9d6"/><rect x="4" width="2" height="20" fill="#ffc9d6"/><rect x="8" width="2" height="20" fill="#ffc9d6"/><rect x="12" width="2" height="20" fill="#ffc9d6"/><rect x="16" width="2" height="20" fill="#ffc9d6"/></g><g transform="translate(806.69,156.13) scale(1.301) rotate(0)"><rect width="20" height="10" fill="#f8f9fe"/></g><g transform="translate(780.67,182.16) scale(1.301) rotate(0)"><rect width="20" height="10" fill="#a9b7f4"/></g><g transform="translate(806.69,182.16) scale(1.301) rotate(0)"><rect width="20" height="10" fill="#fffffe"/></g><g transform="translate(832.71,156.13) scale(2.602) rotate(0)"><path fill-rule="evenodd" clip-rule="evenodd" d="M10 20C15.5228 20 20 15.5228 20 10C20 4.47715 15.5228 0 10 0C4.47715 0 0 4.47715 0 10C0 15.5228 4.47715 20 10 20ZM10 17C13.866 17 17 13.866 17 10C17 6.13401 13.866 3 10 3C6.13401 3 3 6.13401 3 10C3 13.866 6.13401 17 10 17Z" fill="#98a9f2"/></g><g transform="translate(0,208.18) scale(2.602) rotate(0)"><path d="M10 1L12.2451 7.90983H19.5106L13.6327 12.1803L15.8779 19.0902L10 14.8197L4.12215 19.0902L6.36729 12.1803L0.489441 7.90983H7.75487L10 1Z" fill="#ffc5d3"/></g><path d="M 52.04 260.22 A 52.04 52.04 0 0 1  104.08 208.18 L 52.04 260.22 A 52.04 52.04 0 0 0 104.08 208.18" fill="#fcb4cf"/><g transform="translate(104.09,208.18) scale(2.602) rotate(0)"><path d="M10 0H20L0 20V10L10 0Z" fill="#ffb3c5"/><path d="M20 10V20H10L20 10Z" fill="#ffb3c5"/></g><rect x="156.13333333333333" y="208.17777777777778" width="52.044444444444444" height="52.044444444444444" fill="#ffffff"/><g transform="translate(156.13,208.18) scale(1.301) rotate(0)"><rect width="20" height="10" fill="#637deb"/></g><g transform="translate(182.16,208.18) scale(1.301) rotate(0)"><path d="M10 0H20L0 20V10L10 0Z" fill="#fffdfb"/><path d="M20 10V20H10L20 10Z" fill="#fffdfb"/></g><g transform="translate(156.13,234.2) scale(1.301) rotate(0)"><rect width="20" height="2" fill="#3c5de6"/><rect y="4" width="20" height="2" fill="#3c5de6"/><rect y="8" width="20" height="2" fill="#3c5de6"/><rect y="12" width="20" height="2" fill="#3c5de6"/><rect y="16" width="20" height="2" fill="#3c5de6"/></g><g transform="translate(182.16,234.2) scale(1.301) rotate(0)"><path d="M19.9981 0.00193429L3.72652 -7.68637e-07L8.4784 4.75382L0 13.2345L6.76585 20L15.2462 11.5208L20 16.2746L19.9981 0.00193429Z" fill="#ff7f9d"/></g><g transform="translate(208.18,208.18) scale(2.602) rotate(0)"><path fill-rule="evenodd" clip-rule="evenodd" d="M10 20C15.5228 20 20 15.5228 20 10C20 4.47715 15.5228 0 10 0C4.47715 0 0 4.47715 0 10C0 15.5228 4.47715 20 10 20ZM10 17C13.866 17 17 13.866 17 10C17 6.13401 13.866 3 10 3C6.13401 3 3 6.13401 3 10C3 13.866 6.13401 17 10 17Z" fill="#4968e7"/></g><g transform="translate(260.22,208.18) scale(2.602) rotate(0)"><path fill-rule="evenodd" clip-rule="evenodd" d="M10 20C15.5228 20 20 15.5228 20 10C20 4.47715 15.5228 0 10 0C4.47715 0 0 4.47715 0 10C0 15.5228 4.47715 20 10 20ZM10 17C13.866 17 17 13.866 17 10C17 6.13401 13.866 3 10 3C6.13401 3 3 6.13401 3 10C3 13.866 6.13401 17 10 17Z" fill="#fffefd"/></g><g transform="translate(312.27,208.18) scale(2.602) rotate(0)"><path d="M10 5L5 0L0 5L5 10L0 15L5 20L10 15L15 20L20 15L15 10L20 5L15 0L10 5Z" fill="#fedeea"/></g><g transform="translate(364.31,208.18) scale(2.602) rotate(0)"><rect width="20" height="2" fill="#edf4fe"/><rect y="4" width="20" height="2" fill="#edf4fe"/><rect y="8" width="20" height="2" fill="#edf4fe"/><rect y="12" width="20" height="2" fill="#edf4fe"/><rect y="16" width="20" height="2" fill="#edf4fe"/></g><g transform="translate(416.36,208.18) scale(2.602) rotate(0)"><path d="M10 0H20L0 20V10L10 0Z" fill="#f95c96"/><path d="M20 10V20H10L20 10Z" fill="#f95c96"/></g><rect x="468.4" y="208.17777777777778" width="52.044444444444444" height="52.044444444444444" fill="#ffffff"/><g transform="translate(468.4,208.18) scale(1.301) rotate(0)"><path d="M5 0H10L5 5L0 10V5L5 0Z" fill="#ffffff"/><path d="M20 15V20H15L20 15Z" fill="#ffffff"/><path d="M20 5V10L15 15L10 20H5L20 5Z" fill="#ffffff"/><path d="M15 0H20L5 15.0002L0 20.0002V15.0002L15 0Z" fill="#ffffff"/></g><g transform="translate(494.42,208.18) scale(1.301) rotate(0)"><path d="M10 1L12.2451 7.90983H19.5106L13.6327 12.1803L15.8779 19.0902L10 14.8197L4.12215 19.0902L6.36729 12.1803L0.489441 7.90983H7.75487L10 1Z" fill="#e8f1fe"/></g><g transform="translate(468.4,234.2) scale(1.301) rotate(0)"><path fill-rule="evenodd" clip-rule="evenodd" d="M10 20C15.5228 20 20 15.5228 20 10C20 4.47715 15.5228 0 10 0C4.47715 0 0 4.47715 0 10C0 15.5228 4.47715 20 10 20ZM10 17C13.866 17 17 13.866 17 10C17 6.13401 13.866 3 10 3C6.13401 3 3 6.13401 3 10C3 13.866 6.13401 17 10 17Z" fill="#fbfdff"/></g><g transform="translate(494.42,234.2) scale(1.301) rotate(0)"><path d="M10 0H20L0 20V10L10 0Z" fill="#ffffff"/><path d="M20 10V20H10L20 10Z" fill="#ffffff"/></g><rect x="520.4444444444445" y="208.17777777777778" width="52.044444444444444" height="52.044444444444444" fill="#ffffff"/><g transform="translate(520.44,208.18) scale(1.301) rotate(0)"><path d="M10 5L5 0L0 5L5 10L0 15L5 20L10 15L15 20L20 15L15 10L20 5L15 0L10 5Z" fill="#fee7ef"/></g><g transform="translate(546.47,208.18) scale(1.301) rotate(0)"><path d="M10 5L5 0L0 5L5 10L0 15L5 20L10 15L15 20L20 15L15 10L20 5L15 0L10 5Z" fill="#e6f0fe"/></g><g transform="translate(520.44,234.2) scale(1.301) rotate(0)"><rect width="20" height="2" fill="#f73079"/><rect y="4" width="20" height="2" fill="#f73079"/><rect y="8" width="20" height="2" fill="#f73079"/><rect y="12" width="20" height="2" fill="#f73079"/><rect y="16" width="20" height="2" fill="#f73079"/></g><g transform="translate(546.47,234.2) scale(1.301) rotate(0)"><path d="M10 0H20L0 20V10L10 0Z" fill="#e7f1fe"/><path d="M20 10V20H10L20 10Z" fill="#e7f1fe"/></g><rect x="572.49" y="208.18" width="52.04" height="52.04" fill="#ff6d90"/><rect x="624.5333333333333" y="208.17777777777778" width="52.044444444444444" height="52.044444444444444" fill="#ffffff"/><g transform="translate(624.53,208.18) scale(1.301) rotate(0)"><rect width="20" height="2" fill="#ff8ea9"/><rect y="4" width="20" height="2" fill="#ff8ea9"/><rect y="8" width="20" height="2" fill="#ff8ea9"/><rect y="12" width="20" height="2" fill="#ff8ea9"/><rect y="16" width="20" height="2" fill="#ff8ea9"/></g><g transform="translate(650.56,208.18) scale(1.301) rotate(0)"><path d="M10 5L5 0L0 5L5 10L0 15L5 20L10 15L15 20L20 15L15 10L20 5L15 0L10 5Z" fill="#fffdfb"/></g><g transform="translate(624.53,234.2) scale(1.301) rotate(0)"><rect width="20" height="2" fill="#ebf3fe"/><rect y="4" width="20" height="2" fill="#ebf3fe"/><rect y="8" width="20" height="2" fill="#ebf3fe"/><rect y="12" width="20" height="2" fill="#ebf3fe"/><rect y="16" width="20" height="2" fill="#ebf3fe"/></g><g transform="translate(650.56,234.2) scale(1.301) rotate(0)"><path d="M10 0H20L0 20V10L10 0Z" fill="#ffecf1"/><path d="M20 10V20H10L20 10Z" fill="#ffecf1"/></g><rect x="676.5777777777778" y="208.17777777777778" width="52.044444444444444" height="52.044444444444444" fill="#ffffff"/><g transform="translate(676.58,208.18) scale(1.301) rotate(0)"><rect width="2" height="20" fill="#fffdfb"/><rect x="4" width="2" height="20" fill="#fffdfb"/><rect x="8" width="2" height="20" fill="#fffdfb"/><rect x="12" width="2" height="20" fill="#fffdfb"/><rect x="16" width="2" height="20" fill="#fffdfb"/></g><g transform="translate(702.6,208.18) scale(1.301) rotate(0)"><path d="M10 5L5 0L0 5L5 10L0 15L5 20L10 15L15 20L20 15L15 10L20 5L15 0L10 5Z" fill="#e7ebfc"/></g><g transform="translate(676.58,234.2) scale(1.301) rotate(0)"><rect width="20" height="2" fill="#fb8fb7"/><rect y="4" width="20" height="2" fill="#fb8fb7"/><rect y="8" width="20" height="2" fill="#fb8fb7"/><rect y="12" width="20" height="2" fill="#fb8fb7"/><rect y="16" width="20" height="2" fill="#fb8fb7"/></g><g transform="translate(702.6,234.2) scale(1.301) rotate(0)"><path d="M5 0H10L5 5L0 10V5L5 0Z" fill="#7990ee"/><path d="M20 15V20H15L20 15Z" fill="#7990ee"/><path d="M20 5V10L15 15L10 20H5L20 5Z" fill="#7990ee"/><path d="M15 0H20L5 15.0002L0 20.0002V15.0002L15 0Z" fill="#7990ee"/></g><g transform="translate(728.62,208.18) scale(2.602) rotate(0)"><path d="M19.9981 0.00193429L3.72652 -7.68637e-07L8.4784 4.75382L0 13.2345L6.76585 20L15.2462 11.5208L20 16.2746L19.9981 0.00193429Z" fill="#f83f83"/></g><g transform="translate(780.67,208.18) scale(2.602) rotate(0)"><path d="M10 0H20L0 20V10L10 0Z" fill="#ff8ca7"/><path d="M20 10V20H10L20 10Z" fill="#ff8ca7"/></g><rect x="832.7111111111111" y="208.17777777777778" width="52.044444444444444" height="52.044444444444444" fill="#ffffff"/><rect x="832.71" y="208.18" width="26.02" height="26.02" fill="#feeff5"/><g transform="translate(858.73,208.18) scale(1.301) rotate(0)"><path d="M5 0H10L5 5L0 10V5L5 0Z" fill="#eff5fe"/><path d="M20 15V20H15L20 15Z" fill="#eff5fe"/><path d="M20 5V10L15 15L10 20H5L20 5Z" fill="#eff5fe"/><path d="M15 0H20L5 15.0002L0 20.0002V15.0002L15 0Z" fill="#eff5fe"/></g><g transform="translate(832.71,234.2) scale(1.301) rotate(0)"><path d="M19.9981 0.00193429L3.72652 -7.68637e-07L8.4784 4.75382L0 13.2345L6.76585 20L15.2462 11.5208L20 16.2746L19.9981 0.00193429Z" fill="#fffefc"/></g><g transform="translate(858.73,234.2) scale(1.301) rotate(0)"><rect width="20" height="2" fill="#f9639a"/><rect y="4" width="20" height="2" fill="#f9639a"/><rect y="8" width="20" height="2" fill="#f9639a"/><rect y="12" width="20" height="2" fill="#f9639a"/><rect y="16" width="20" height="2" fill="#f9639a"/></g><path d="M 0 312.26000000000005 A 52.04 52.04 0 0 1  52.04 260.22 L 0 312.26000000000005 A 52.04 52.04 0 0 0 52.04 260.22" fill="#eef5fe"/><g transform="translate(52.04,260.22) scale(2.602) rotate(0)"><path d="M10 0H20L0 20V10L10 0Z" fill="#f1f7ff"/><path d="M20 10V20H10L20 10Z" fill="#f1f7ff"/></g><g transform="translate(104.09,260.22) scale(2.602) rotate(0)"><path fill-rule="evenodd" clip-rule="evenodd" d="M10 20C15.5228 20 20 15.5228 20 10C20 4.47715 15.5228 0 10 0C4.47715 0 0 4.47715 0 10C0 15.5228 4.47715 20 10 20ZM10 17C13.866 17 17 13.866 17 10C17 6.13401 13.866 3 10 3C6.13401 3 3 6.13401 3 10C3 13.866 6.13401 17 10 17Z" fill="#fa83af"/></g><rect x="156.13" y="260.22" width="52.04" height="52.04" fill="#fffdfb"/><g transform="translate(208.18,260.22) scale(2.602) rotate(0)"><rect width="20" height="2" fill="#ff99b1"/><rect y="4" width="20" height="2" fill="#ff99b1"/><rect y="8" width="20" height="2" fill="#ff99b1"/><rect y="12" width="20" height="2" fill="#ff99b1"/><rect y="16" width="20" height="2" fill="#ff99b1"/></g><g transform="translate(260.22,260.22) scale(2.602) rotate(0)"><path d="M10 5L5 0L0 5L5 10L0 15L5 20L10 15L15 20L20 15L15 10L20 5L15 0L10 5Z" fill="#fdc0d6"/></g><rect x="312.26666666666665" y="260.22222222222223" width="52.044444444444444" height="52.044444444444444" fill="#ffffff"/><g transform="translate(312.27,260.22) scale(1.301) rotate(0)"><path fill-rule="evenodd" clip-rule="evenodd" d="M10 20C15.5228 20 20 15.5228 20 10C20 4.47715 15.5228 0 10 0C4.47715 0 0 4.47715 0 10C0 15.5228 4.47715 20 10 20ZM10 17C13.866 17 17 13.866 17 10C17 6.13401 13.866 3 10 3C6.13401 3 3 6.13401 3 10C3 13.866 6.13401 17 10 17Z" fill="#fffefc"/></g><g transform="translate(338.29,260.22) scale(1.301) rotate(0)"><path d="M19.9981 0.00193429L3.72652 -7.68637e-07L8.4784 4.75382L0 13.2345L6.76585 20L15.2462 11.5208L20 16.2746L19.9981 0.00193429Z" fill="#ff3665"/></g><g transform="translate(312.27,286.24) scale(1.301) rotate(0)"><rect width="20" height="2" fill="#fffefd"/><rect y="4" width="20" height="2" fill="#fffefd"/><rect y="8" width="20" height="2" fill="#fffefd"/><rect y="12" width="20" height="2" fill="#fffefd"/><rect y="16" width="20" height="2" fill="#fffefd"/></g><g transform="translate(338.29,286.24) scale(1.301) rotate(0)"><path d="M19.9981 0.00193429L3.72652 -7.68637e-07L8.4784 4.75382L0 13.2345L6.76585 20L15.2462 11.5208L20 16.2746L19.9981 0.00193429Z" fill="#fffefe"/></g><g transform="translate(364.31,260.22) scale(2.602) rotate(0)"><rect width="20" height="10" fill="#e3eefe"/></g><rect x="416.36" y="260.22" width="52.04" height="52.04" fill="#f9629a"/><rect x="468.4" y="260.22222222222223" width="52.044444444444444" height="52.044444444444444" fill="#ffffff"/><g transform="translate(468.4,260.22) scale(1.301) rotate(0)"><rect width="20" height="10" fill="#6781eb"/></g><g transform="translate(494.42,260.22) scale(1.301) rotate(0)"><path d="M5 0H10L5 5L0 10V5L5 0Z" fill="#fffefc"/><path d="M20 15V20H15L20 15Z" fill="#fffefc"/><path d="M20 5V10L15 15L10 20H5L20 5Z" fill="#fffefc"/><path d="M15 0H20L5 15.0002L0 20.0002V15.0002L15 0Z" fill="#fffefc"/></g><g transform="translate(468.4,286.24) scale(1.301) rotate(0)"><rect width="20" height="2" fill="#ffffff"/><rect y="4" width="20" height="2" fill="#ffffff"/><rect y="8" width="20" height="2" fill="#ffffff"/><rect y="12" width="20" height="2" fill="#ffffff"/><rect y="16" width="20" height="2" fill="#ffffff"/></g><g transform="translate(494.42,286.24) scale(1.301) rotate(0)"><path d="M5 0H10L5 5L0 10V5L5 0Z" fill="#4060e6"/><path d="M20 15V20H15L20 15Z" fill="#4060e6"/><path d="M20 5V10L15 15L10 20H5L20 5Z" fill="#4060e6"/><path d="M15 0H20L5 15.0002L0 20.0002V15.0002L15 0Z" fill="#4060e6"/></g><g transform="translate(520.44,260.22) scale(2.602) rotate(0)"><rect width="2" height="20" fill="#d3daf9"/><rect x="4" width="2" height="20" fill="#d3daf9"/><rect x="8" width="2" height="20" fill="#d3daf9"/><rect x="12" width="2" height="20" fill="#d3daf9"/><rect x="16" width="2" height="20" fill="#d3daf9"/></g><g transform="translate(572.49,260.22) scale(2.602) rotate(0)"><path d="M5 0H10L5 5L0 10V5L5 0Z" fill="#fffdfa"/><path d="M20 15V20H15L20 15Z" fill="#fffdfa"/><path d="M20 5V10L15 15L10 20H5L20 5Z" fill="#fffdfa"/><path d="M15 0H20L5 15.0002L0 20.0002V15.0002L15 0Z" fill="#fffdfa"/></g><g transform="translate(624.53,260.22) scale(2.602) rotate(0)"><path d="M19.9981 0.00193429L3.72652 -7.68637e-07L8.4784 4.75382L0 13.2345L6.76585 20L15.2462 11.5208L20 16.2746L19.9981 0.00193429Z" fill="#fffffe"/></g><g transform="translate(676.58,260.22) scale(2.602) rotate(0)"><path d="M19.9981 0.00193429L3.72652 -7.68637e-07L8.4784 4.75382L0 13.2345L6.76585 20L15.2462 11.5208L20 16.2746L19.9981 0.00193429Z" fill="#f72d78"/></g><g transform="translate(728.62,260.22) scale(2.602) rotate(0)"><path d="M10 1L12.2451 7.90983H19.5106L13.6327 12.1803L15.8779 19.0902L10 14.8197L4.12215 19.0902L6.36729 12.1803L0.489441 7.90983H7.75487L10 1Z" fill="#fffffe"/></g><rect x="780.67" y="260.22" width="52.04" height="52.04" fill="#fafbfe"/><rect x="832.7111111111111" y="260.22222222222223" width="52.044444444444444" height="52.044444444444444" fill="#ffffff"/><g transform="translate(832.71,260.22) scale(1.301) rotate(0)"><path d="M5 0H10L5 5L0 10V5L5 0Z" fill="#ff83a0"/><path d="M20 15V20H15L20 15Z" fill="#ff83a0"/><path d="M20 5V10L15 15L10 20H5L20 5Z" fill="#ff83a0"/><path d="M15 0H20L5 15.0002L0 20.0002V15.0002L15 0Z" fill="#ff83a0"/></g><g transform="translate(858.73,260.22) scale(1.301) rotate(0)"><path d="M5 0H10L5 5L0 10V5L5 0Z" fill="#ffdbe4"/><path d="M20 15V20H15L20 15Z" fill="#ffdbe4"/><path d="M20 5V10L15 15L10 20H5L20 5Z" fill="#ffdbe4"/><path d="M15 0H20L5 15.0002L0 20.0002V15.0002L15 0Z" fill="#ffdbe4"/></g><g transform="translate(832.71,286.24) scale(1.301) rotate(0)"><path fill-rule="evenodd" clip-rule="evenodd" d="M10 20C15.5228 20 20 15.5228 20 10C20 4.47715 15.5228 0 10 0C4.47715 0 0 4.47715 0 10C0 15.5228 4.47715 20 10 20ZM10 17C13.866 17 17 13.866 17 10C17 6.13401 13.866 3 10 3C6.13401 3 3 6.13401 3 10C3 13.866 6.13401 17 10 17Z" fill="#ced6f9"/></g><g transform="translate(858.73,286.24) scale(1.301) rotate(0)"><path fill-rule="evenodd" clip-rule="evenodd" d="M10 20C15.5228 20 20 15.5228 20 10C20 4.47715 15.5228 0 10 0C4.47715 0 0 4.47715 0 10C0 15.5228 4.47715 20 10 20ZM10 17C13.866 17 17 13.866 17 10C17 6.13401 13.866 3 10 3C6.13401 3 3 6.13401 3 10C3 13.866 6.13401 17 10 17Z" fill="#fffffe"/></g><g transform="translate(0,312.27) scale(2.602) rotate(0)"><rect width="20" height="10" fill="#516ee8"/></g><g transform="translate(52.04,312.27) scale(2.602) rotate(0)"><path fill-rule="evenodd" clip-rule="evenodd" d="M10 20C15.5228 20 20 15.5228 20 10C20 4.47715 15.5228 0 10 0C4.47715 0 0 4.47715 0 10C0 15.5228 4.47715 20 10 20ZM10 17C13.866 17 17 13.866 17 10C17 6.13401 13.866 3 10 3C6.13401 3 3 6.13401 3 10C3 13.866 6.13401 17 10 17Z" fill="#ffa3b9"/></g><g transform="translate(104.09,312.27) scale(2.602) rotate(0)"><rect width="20" height="2" fill="#fff7f9"/><rect y="4" width="20" height="2" fill="#fff7f9"/><rect y="8" width="20" height="2" fill="#fff7f9"/><rect y="12" width="20" height="2" fill="#fff7f9"/><rect y="16" width="20" height="2" fill="#fff7f9"/></g><g transform="translate(156.13,312.27) scale(2.602) rotate(0)"><rect width="20" height="2" fill="#ff7f9e"/><rect y="4" width="20" height="2" fill="#ff7f9e"/><rect y="8" width="20" height="2" fill="#ff7f9e"/><rect y="12" width="20" height="2" fill="#ff7f9e"/><rect y="16" width="20" height="2" fill="#ff7f9e"/></g><g transform="translate(208.18,312.27) scale(2.602) rotate(0)"><rect width="2" height="20" fill="#fffefc"/><rect x="4" width="2" height="20" fill="#fffefc"/><rect x="8" width="2" height="20" fill="#fffefc"/><rect x="12" width="2" height="20" fill="#fffefc"/><rect x="16" width="2" height="20" fill="#fffefc"/></g><rect x="260.22222222222223" y="312.26666666666665" width="52.044444444444444" height="52.044444444444444" fill="#ffffff"/><g transform="translate(260.22,312.27) scale(1.301) rotate(0)"><path d="M10 1L12.2451 7.90983H19.5106L13.6327 12.1803L15.8779 19.0902L10 14.8197L4.12215 19.0902L6.36729 12.1803L0.489441 7.90983H7.75487L10 1Z" fill="#fffefe"/></g><path d="M 286.24 312.27 A 26.02 26.02 0 0 1  312.26 338.28999999999996 L 286.24 312.27 A 26.02 26.02 0 0 0 312.26 338.28999999999996" fill="#fa82ae"/><g transform="translate(260.22,338.29) scale(1.301) rotate(0)"><rect width="20" height="10" fill="#fee4ed"/></g><g transform="translate(286.24,338.29) scale(1.301) rotate(0)"><path d="M10 5L5 0L0 5L5 10L0 15L5 20L10 15L15 20L20 15L15 10L20 5L15 0L10 5Z" fill="#fcaac8"/></g><g transform="translate(312.27,312.27) scale(2.602) rotate(0)"><rect width="2" height="20" fill="#ffe5eb"/><rect x="4" width="2" height="20" fill="#ffe5eb"/><rect x="8" width="2" height="20" fill="#ffe5eb"/><rect x="12" width="2" height="20" fill="#ffe5eb"/><rect x="16" width="2" height="20" fill="#ffe5eb"/></g><g transform="translate(364.31,312.27) scale(2.602) rotate(0)"><rect width="20" height="10" fill="#fffefd"/></g><g transform="translate(416.36,312.27) scale(2.602) rotate(0)"><rect width="20" height="2" fill="#fa7fad"/><rect y="4" width="20" height="2" fill="#fa7fad"/><rect y="8" width="20" height="2" fill="#fa7fad"/><rect y="12" width="20" height="2" fill="#fa7fad"/><rect y="16" width="20" height="2" fill="#fa7fad"/></g><rect x="468.4" y="312.26666666666665" width="52.044444444444444" height="52.044444444444444" fill="#ffffff"/><g transform="translate(468.4,312.27) scale(1.301) rotate(0)"><path d="M10 5L5 0L0 5L5 10L0 15L5 20L10 15L15 20L20 15L15 10L20 5L15 0L10 5Z" fill="#fdfeff"/></g><rect x="494.42" y="312.27" width="26.02" height="26.02" fill="#ffffff"/><g transform="translate(468.4,338.29) scale(1.301) rotate(0)"><rect width="20" height="10" fill="#3355e4"/></g><g transform="translate(494.42,338.29) scale(1.301) rotate(0)"><rect width="2" height="20" fill="#fa83af"/><rect x="4" width="2" height="20" fill="#fa83af"/><rect x="8" width="2" height="20" fill="#fa83af"/><rect x="12" width="2" height="20" fill="#fa83af"/><rect x="16" width="2" height="20" fill="#fa83af"/></g><g transform="translate(520.44,312.27) scale(2.602) rotate(0)"><path d="M5 0H10L5 5L0 10V5L5 0Z" fill="#ffbbcb"/><path d="M20 15V20H15L20 15Z" fill="#ffbbcb"/><path d="M20 5V10L15 15L10 20H5L20 5Z" fill="#ffbbcb"/><path d="M15 0H20L5 15.0002L0 20.0002V15.0002L15 0Z" fill="#ffbbcb"/></g><g transform="translate(572.49,312.27) scale(2.602) rotate(0)"><path d="M10 5L5 0L0 5L5 10L0 15L5 20L10 15L15 20L20 15L15 10L20 5L15 0L10 5Z" fill="#fa6fa2"/></g><rect x="624.5333333333333" y="312.26666666666665" width="52.044444444444444" height="52.044444444444444" fill="#ffffff"/><g transform="translate(624.53,312.27) scale(1.301) rotate(0)"><path d="M19.9981 0.00193429L3.72652 -7.68637e-07L8.4784 4.75382L0 13.2345L6.76585 20L15.2462 11.5208L20 16.2746L19.9981 0.00193429Z" fill="#fffefd"/></g><g transform="translate(650.56,312.27) scale(1.301) rotate(0)"><path d="M19.9981 0.00193429L3.72652 -7.68637e-07L8.4784 4.75382L0 13.2345L6.76585 20L15.2462 11.5208L20 16.2746L19.9981 0.00193429Z" fill="#fef1f6"/></g><g transform="translate(624.53,338.29) scale(1.301) rotate(0)"><rect width="2" height="20" fill="#889cf0"/><rect x="4" width="2" height="20" fill="#889cf0"/><rect x="8" width="2" height="20" fill="#889cf0"/><rect x="12" width="2" height="20" fill="#889cf0"/><rect x="16" width="2" height="20" fill="#889cf0"/></g><g transform="translate(650.56,338.29) scale(1.301) rotate(0)"><path fill-rule="evenodd" clip-rule="evenodd" d="M10 20C15.5228 20 20 15.5228 20 10C20 4.47715 15.5228 0 10 0C4.47715 0 0 4.47715 0 10C0 15.5228 4.47715 20 10 20ZM10 17C13.866 17 17 13.866 17 10C17 6.13401 13.866 3 10 3C6.13401 3 3 6.13401 3 10C3 13.866 6.13401 17 10 17Z" fill="#fffcfc"/></g><g transform="translate(676.58,312.27) scale(2.602) rotate(0)"><rect width="20" height="2" fill="#fa77a7"/><rect y="4" width="20" height="2" fill="#fa77a7"/><rect y="8" width="20" height="2" fill="#fa77a7"/><rect y="12" width="20" height="2" fill="#fa77a7"/><rect y="16" width="20" height="2" fill="#fa77a7"/></g><g transform="translate(728.62,312.27) scale(2.602) rotate(0)"><rect width="20" height="2" fill="#fffffe"/><rect y="4" width="20" height="2" fill="#fffffe"/><rect y="8" width="20" height="2" fill="#fffffe"/><rect y="12" width="20" height="2" fill="#fffffe"/><rect y="16" width="20" height="2" fill="#fffffe"/></g><rect x="780.6666666666666" y="312.26666666666665" width="52.044444444444444" height="52.044444444444444" fill="#ffffff"/><g transform="translate(780.67,312.27) scale(1.301) rotate(0)"><rect width="20" height="10" fill="#788fed"/></g><g transform="translate(806.69,312.27) scale(1.301) rotate(0)"><path d="M10 0H20L0 20V10L10 0Z" fill="#879cef"/><path d="M20 10V20H10L20 10Z" fill="#879cef"/></g><g transform="translate(780.67,338.29) scale(1.301) rotate(0)"><path d="M10 0H20L0 20V10L10 0Z" fill="#fff6f9"/><path d="M20 10V20H10L20 10Z" fill="#fff6f9"/></g><g transform="translate(806.69,338.29) scale(1.301) rotate(0)"><path d="M5 0H10L5 5L0 10V5L5 0Z" fill="#ffa2b8"/><path d="M20 15V20H15L20 15Z" fill="#ffa2b8"/><path d="M20 5V10L15 15L10 20H5L20 5Z" fill="#ffa2b8"/><path d="M15 0H20L5 15.0002L0 20.0002V15.0002L15 0Z" fill="#ffa2b8"/></g><rect x="832.71" y="312.27" width="52.04" height="52.04" fill="#dce2fa"/><g transform="translate(0,364.31) scale(2.602) rotate(0)"><path d="M10 1L12.2451 7.90983H19.5106L13.6327 12.1803L15.8779 19.0902L10 14.8197L4.12215 19.0902L6.36729 12.1803L0.489441 7.90983H7.75487L10 1Z" fill="#f4f9ff"/></g><rect x="52.04" y="364.31" width="52.04" height="52.04" fill="#fffefe"/><rect x="104.08888888888889" y="364.31111111111113" width="52.044444444444444" height="52.044444444444444" fill="#ffffff"/><g transform="translate(104.09,364.31) scale(1.301) rotate(0)"><path d="M19.9981 0.00193429L3.72652 -7.68637e-07L8.4784 4.75382L0 13.2345L6.76585 20L15.2462 11.5208L20 16.2746L19.9981 0.00193429Z" fill="#f3f8ff"/></g><g transform="translate(130.11,364.31) scale(1.301) rotate(0)"><path d="M19.9981 0.00193429L3.72652 -7.68637e-07L8.4784 4.75382L0 13.2345L6.76585 20L15.2462 11.5208L20 16.2746L19.9981 0.00193429Z" fill="#e6f0fe"/></g><g transform="translate(104.09,390.33) scale(1.301) rotate(0)"><path d="M19.9981 0.00193429L3.72652 -7.68637e-07L8.4784 4.75382L0 13.2345L6.76585 20L15.2462 11.5208L20 16.2746L19.9981 0.00193429Z" fill="#eaf2fe"/></g><g transform="translate(130.11,390.33) scale(1.301) rotate(0)"><rect width="20" height="10" fill="#b1bef5"/></g><g transform="translate(156.13,364.31) scale(2.602) rotate(0)"><rect width="20" height="2" fill="#fffefb"/><rect y="4" width="20" height="2" fill="#fffefb"/><rect y="8" width="20" height="2" fill="#fffefb"/><rect y="12" width="20" height="2" fill="#fffefb"/><rect y="16" width="20" height="2" fill="#fffefb"/></g><g transform="translate(208.18,364.31) scale(2.602) rotate(0)"><path d="M5 0H10L5 5L0 10V5L5 0Z" fill="#fffefd"/><path d="M20 15V20H15L20 15Z" fill="#fffefd"/><path d="M20 5V10L15 15L10 20H5L20 5Z" fill="#fffefd"/><path d="M15 0H20L5 15.0002L0 20.0002V15.0002L15 0Z" fill="#fffefd"/></g><g transform="translate(260.22,364.31) scale(2.602) rotate(0)"><rect width="20" height="10" fill="#ffffff"/></g><g transform="translate(312.27,364.31) scale(2.602) rotate(0)"><path fill-rule="evenodd" clip-rule="evenodd" d="M10 20C15.5228 20 20 15.5228 20 10C20 4.47715 15.5228 0 10 0C4.47715 0 0 4.47715 0 10C0 15.5228 4.47715 20 10 20ZM10 17C13.866 17 17 13.866 17 10C17 6.13401 13.866 3 10 3C6.13401 3 3 6.13401 3 10C3 13.866 6.13401 17 10 17Z" fill="#fffefc"/></g><g transform="translate(364.31,364.31) scale(2.602) rotate(0)"><path d="M10 1L12.2451 7.90983H19.5106L13.6327 12.1803L15.8779 19.0902L10 14.8197L4.12215 19.0902L6.36729 12.1803L0.489441 7.90983H7.75487L10 1Z" fill="#dee4fb"/></g><g transform="translate(416.36,364.31) scale(2.602) rotate(0)"><path d="M19.9981 0.00193429L3.72652 -7.68637e-07L8.4784 4.75382L0 13.2345L6.76585 20L15.2462 11.5208L20 16.2746L19.9981 0.00193429Z" fill="#fffefe"/></g><g transform="translate(468.4,364.31) scale(2.602) rotate(0)"><path fill-rule="evenodd" clip-rule="evenodd" d="M10 20C15.5228 20 20 15.5228 20 10C20 4.47715 15.5228 0 10 0C4.47715 0 0 4.47715 0 10C0 15.5228 4.47715 20 10 20ZM10 17C13.866 17 17 13.866 17 10C17 6.13401 13.866 3 10 3C6.13401 3 3 6.13401 3 10C3 13.866 6.13401 17 10 17Z" fill="#ffd6e0"/></g><rect x="520.4444444444445" y="364.31111111111113" width="52.044444444444444" height="52.044444444444444" fill="#ffffff"/><g transform="translate(520.44,364.31) scale(1.301) rotate(0)"><path d="M10 0H20L0 20V10L10 0Z" fill="#f72673"/><path d="M20 10V20H10L20 10Z" fill="#f72673"/></g><g transform="translate(546.47,364.31) scale(1.301) rotate(0)"><path d="M19.9981 0.00193429L3.72652 -7.68637e-07L8.4784 4.75382L0 13.2345L6.76585 20L15.2462 11.5208L20 16.2746L19.9981 0.00193429Z" fill="#5c78ea"/></g><g transform="translate(520.44,390.33) scale(1.301) rotate(0)"><rect width="20" height="10" fill="#fdc3d8"/></g><g transform="translate(546.47,390.33) scale(1.301) rotate(0)"><path d="M19.9981 0.00193429L3.72652 -7.68637e-07L8.4784 4.75382L0 13.2345L6.76585 20L15.2462 11.5208L20 16.2746L19.9981 0.00193429Z" fill="#fa76a6"/></g><g transform="translate(572.49,364.31) scale(2.602) rotate(0)"><rect width="2" height="20" fill="#e3effe"/><rect x="4" width="2" height="20" fill="#e3effe"/><rect x="8" width="2" height="20" fill="#e3effe"/><rect x="12" width="2" height="20" fill="#e3effe"/><rect x="16" width="2" height="20" fill="#e3effe"/></g><g transform="translate(624.53,364.31) scale(2.602) rotate(0)"><path d="M10 1L12.2451 7.90983H19.5106L13.6327 12.1803L15.8779 19.0902L10 14.8197L4.12215 19.0902L6.36729 12.1803L0.489441 7.90983H7.75487L10 1Z" fill="#ff6489"/></g><rect x="676.5777777777778" y="364.31111111111113" width="52.044444444444444" height="52.044444444444444" fill="#ffffff"/><g transform="translate(676.58,364.31) scale(1.301) rotate(0)"><path d="M10 0H20L0 20V10L10 0Z" fill="#fa73a5"/><path d="M20 10V20H10L20 10Z" fill="#fa73a5"/></g><rect x="702.6" y="364.31" width="26.02" height="26.02" fill="#6d86ec"/><g transform="translate(676.58,390.33) scale(1.301) rotate(0)"><rect width="2" height="20" fill="#6982ec"/><rect x="4" width="2" height="20" fill="#6982ec"/><rect x="8" width="2" height="20" fill="#6982ec"/><rect x="12" width="2" height="20" fill="#6982ec"/><rect x="16" width="2" height="20" fill="#6982ec"/></g><g transform="translate(702.6,390.33) scale(1.301) rotate(0)"><path d="M10 5L5 0L0 5L5 10L0 15L5 20L10 15L15 20L20 15L15 10L20 5L15 0L10 5Z" fill="#ffabbf"/></g><rect x="728.62" y="364.31" width="52.04" height="52.04" fill="#fffefe"/><path d="M 780.67 416.35 A 52.04 52.04 0 0 1  832.7099999999999 364.31 L 780.67 416.35 A 52.04 52.04 0 0 0 832.7099999999999 364.31" fill="#a2b2f3"/><g transform="translate(832.71,364.31) scale(2.602) rotate(0)"><path d="M10 5L5 0L0 5L5 10L0 15L5 20L10 15L15 20L20 15L15 10L20 5L15 0L10 5Z" fill="#fff0f4"/></g><g transform="translate(0,416.36) scale(2.602) rotate(0)"><rect width="20" height="2" fill="#f8fbff"/><rect y="4" width="20" height="2" fill="#f8fbff"/><rect y="8" width="20" height="2" fill="#f8fbff"/><rect y="12" width="20" height="2" fill="#f8fbff"/><rect y="16" width="20" height="2" fill="#f8fbff"/></g><path d="M 52.04 416.36 A 52.04 52.04 0 0 1  104.08 468.40000000000003 L 52.04 416.36 A 52.04 52.04 0 0 0 104.08 468.40000000000003" fill="#bcc7f6"/><g transform="translate(104.09,416.36) scale(2.602) rotate(0)"><path d="M10 0H20L0 20V10L10 0Z" fill="#8fa2f0"/><path d="M20 10V20H10L20 10Z" fill="#8fa2f0"/></g><rect x="156.13" y="416.36" width="52.04" height="52.04" fill="#ff9bb2"/><rect x="208.17777777777778" y="416.35555555555555" width="52.044444444444444" height="52.044444444444444" fill="#ffffff"/><g transform="translate(208.18,416.36) scale(1.301) rotate(0)"><path d="M10 5L5 0L0 5L5 10L0 15L5 20L10 15L15 20L20 15L15 10L20 5L15 0L10 5Z" fill="#eef5fe"/></g><g transform="translate(234.2,416.36) scale(1.301) rotate(0)"><path d="M19.9981 0.00193429L3.72652 -7.68637e-07L8.4784 4.75382L0 13.2345L6.76585 20L15.2462 11.5208L20 16.2746L19.9981 0.00193429Z" fill="#eff6fe"/></g><g transform="translate(208.18,442.38) scale(1.301) rotate(0)"><path d="M10 5L5 0L0 5L5 10L0 15L5 20L10 15L15 20L20 15L15 10L20 5L15 0L10 5Z" fill="#7a90ee"/></g><g transform="translate(234.2,442.38) scale(1.301) rotate(0)"><path fill-rule="evenodd" clip-rule="evenodd" d="M10 20C15.5228 20 20 15.5228 20 10C20 4.47715 15.5228 0 10 0C4.47715 0 0 4.47715 0 10C0 15.5228 4.47715 20 10 20ZM10 17C13.866 17 17 13.866 17 10C17 6.13401 13.866 3 10 3C6.13401 3 3 6.13401 3 10C3 13.866 6.13401 17 10 17Z" fill="#ecf4fe"/></g><g transform="translate(260.22,416.36) scale(2.602) rotate(0)"><path fill-rule="evenodd" clip-rule="evenodd" d="M10 20C15.5228 20 20 15.5228 20 10C20 4.47715 15.5228 0 10 0C4.47715 0 0 4.47715 0 10C0 15.5228 4.47715 20 10 20ZM10 17C13.866 17 17 13.866 17 10C17 6.13401 13.866 3 10 3C6.13401 3 3 6.13401 3 10C3 13.866 6.13401 17 10 17Z" fill="#f72d78"/></g><rect x="312.26666666666665" y="416.35555555555555" width="52.044444444444444" height="52.044444444444444" fill="#ffffff"/><g transform="translate(312.27,416.36) scale(1.301) rotate(0)"><path fill-rule="evenodd" clip-rule="evenodd" d="M10 20C15.5228 20 20 15.5228 20 10C20 4.47715 15.5228 0 10 0C4.47715 0 0 4.47715 0 10C0 15.5228 4.47715 20 10 20ZM10 17C13.866 17 17 13.866 17 10C17 6.13401 13.866 3 10 3C6.13401 3 3 6.13401 3 10C3 13.866 6.13401 17 10 17Z" fill="#f2f8ff"/></g><rect x="338.29" y="416.36" width="26.02" height="26.02" fill="#ffffff"/><g transform="translate(312.27,442.38) scale(1.301) rotate(0)"><path fill-rule="evenodd" clip-rule="evenodd" d="M10 20C15.5228 20 20 15.5228 20 10C20 4.47715 15.5228 0 10 0C4.47715 0 0 4.47715 0 10C0 15.5228 4.47715 20 10 20ZM10 17C13.866 17 17 13.866 17 10C17 6.13401 13.866 3 10 3C6.13401 3 3 6.13401 3 10C3 13.866 6.13401 17 10 17Z" fill="#ffadc0"/></g><g transform="translate(338.29,442.38) scale(1.301) rotate(0)"><rect width="2" height="20" fill="#f72975"/><rect x="4" width="2" height="20" fill="#f72975"/><rect x="8" width="2" height="20" fill="#f72975"/><rect x="12" width="2" height="20" fill="#f72975"/><rect x="16" width="2" height="20" fill="#f72975"/></g><g transform="translate(364.31,416.36) scale(2.602) rotate(0)"><rect width="20" height="10" fill="#6b84ec"/></g><path d="M 416.36 416.36 A 52.04 52.04 0 0 1  468.40000000000003 468.40000000000003 L 416.36 416.36 A 52.04 52.04 0 0 0 468.40000000000003 468.40000000000003" fill="#fffefd"/><path d="M 468.4 416.36 A 52.04 52.04 0 0 1  520.4399999999999 468.40000000000003 L 468.4 416.36 A 52.04 52.04 0 0 0 520.4399999999999 468.40000000000003" fill="#fffefc"/><rect x="520.44" y="416.36" width="52.04" height="52.04" fill="#fffefe"/><rect x="572.4888888888889" y="416.35555555555555" width="52.044444444444444" height="52.044444444444444" fill="#ffffff"/><path d="M 572.49 416.36 A 26.02 26.02 0 0 1  598.51 442.38 L 572.49 416.36 A 26.02 26.02 0 0 0 598.51 442.38" fill="#ffffff"/><g transform="translate(598.51,416.36) scale(1.301) rotate(0)"><rect width="20" height="10" fill="#ffedf1"/></g><g transform="translate(572.49,442.38) scale(1.301) rotate(0)"><path d="M10 0H20L0 20V10L10 0Z" fill="#fffbfd"/><path d="M20 10V20H10L20 10Z" fill="#fffbfd"/></g><g transform="translate(598.51,442.38) scale(1.301) rotate(0)"><path d="M10 5L5 0L0 5L5 10L0 15L5 20L10 15L15 20L20 15L15 10L20 5L15 0L10 5Z" fill="#ffffff"/></g><rect x="624.5333333333333" y="416.35555555555555" width="52.044444444444444" height="52.044444444444444" fill="#ffffff"/><rect x="624.53" y="416.36" width="26.02" height="26.02" fill="#ff83a1"/><g transform="translate(650.56,416.36) scale(1.301) rotate(0)"><path d="M19.9981 0.00193429L3.72652 -7.68637e-07L8.4784 4.75382L0 13.2345L6.76585 20L15.2462 11.5208L20 16.2746L19.9981 0.00193429Z" fill="#fafcff"/></g><g transform="translate(624.53,442.38) scale(1.301) rotate(0)"><path d="M10 1L12.2451 7.90983H19.5106L13.6327 12.1803L15.8779 19.0902L10 14.8197L4.12215 19.0902L6.36729 12.1803L0.489441 7.90983H7.75487L10 1Z" fill="#f9659c"/></g><g transform="translate(650.56,442.38) scale(1.301) rotate(0)"><rect width="2" height="20" fill="#ff5079"/><rect x="4" width="2" height="20" fill="#ff5079"/><rect x="8" width="2" height="20" fill="#ff5079"/><rect x="12" width="2" height="20" fill="#ff5079"/><rect x="16" width="2" height="20" fill="#ff5079"/></g><rect x="676.5777777777778" y="416.35555555555555" width="52.044444444444444" height="52.044444444444444" fill="#ffffff"/><g transform="translate(676.58,416.36) scale(1.301) rotate(0)"><path d="M10 5L5 0L0 5L5 10L0 15L5 20L10 15L15 20L20 15L15 10L20 5L15 0L10 5Z" fill="#fffffe"/></g><g transform="translate(702.6,416.36) scale(1.301) rotate(0)"><path d="M19.9981 0.00193429L3.72652 -7.68637e-07L8.4784 4.75382L0 13.2345L6.76585 20L15.2462 11.5208L20 16.2746L19.9981 0.00193429Z" fill="#f2f7ff"/></g><g transform="translate(676.58,442.38) scale(1.301) rotate(0)"><path d="M19.9981 0.00193429L3.72652 -7.68637e-07L8.4784 4.75382L0 13.2345L6.76585 20L15.2462 11.5208L20 16.2746L19.9981 0.00193429Z" fill="#ffd2dc"/></g><g transform="translate(702.6,442.38) scale(1.301) rotate(0)"><path d="M10 0H20L0 20V10L10 0Z" fill="#90a3f1"/><path d="M20 10V20H10L20 10Z" fill="#90a3f1"/></g><g transform="translate(728.62,416.36) scale(2.602) rotate(0)"><rect width="2" height="20" fill="#fffefc"/><rect x="4" width="2" height="20" fill="#fffefc"/><rect x="8" width="2" height="20" fill="#fffefc"/><rect x="12" width="2" height="20" fill="#fffefc"/><rect x="16" width="2" height="20" fill="#fffefc"/></g><rect x="780.6666666666666" y="416.35555555555555" width="52.044444444444444" height="52.044444444444444" fill="#ffffff"/><g transform="translate(780.67,416.36) scale(1.301) rotate(0)"><path fill-rule="evenodd" clip-rule="evenodd" d="M10 20C15.5228 20 20 15.5228 20 10C20 4.47715 15.5228 0 10 0C4.47715 0 0 4.47715 0 10C0 15.5228 4.47715 20 10 20ZM10 17C13.866 17 17 13.866 17 10C17 6.13401 13.866 3 10 3C6.13401 3 3 6.13401 3 10C3 13.866 6.13401 17 10 17Z" fill="#fdfeff"/></g><g transform="translate(806.69,416.36) scale(1.301) rotate(0)"><path d="M10 0H20L0 20V10L10 0Z" fill="#fff0f4"/><path d="M20 10V20H10L20 10Z" fill="#fff0f4"/></g><g transform="translate(780.67,442.38) scale(1.301) rotate(0)"><path d="M10 0H20L0 20V10L10 0Z" fill="#fca9c8"/><path d="M20 10V20H10L20 10Z" fill="#fca9c8"/></g><g transform="translate(806.69,442.38) scale(1.301) rotate(0)"><path d="M10 0H20L0 20V10L10 0Z" fill="#fa6fa2"/><path d="M20 10V20H10L20 10Z" fill="#fa6fa2"/></g><rect x="832.7111111111111" y="416.35555555555555" width="52.044444444444444" height="52.044444444444444" fill="#ffffff"/><g transform="translate(832.71,416.36) scale(1.301) rotate(0)"><rect width="20" height="2" fill="#fffffe"/><rect y="4" width="20" height="2" fill="#fffffe"/><rect y="8" width="20" height="2" fill="#fffffe"/><rect y="12" width="20" height="2" fill="#fffffe"/><rect y="16" width="20" height="2" fill="#fffffe"/></g><path d="M 858.73 416.36 A 26.02 26.02 0 0 1  884.75 442.38 L 858.73 416.36 A 26.02 26.02 0 0 0 884.75 442.38" fill="#fffffe"/><g transform="translate(832.71,442.38) scale(1.301) rotate(0)"><path d="M10 1L12.2451 7.90983H19.5106L13.6327 12.1803L15.8779 19.0902L10 14.8197L4.12215 19.0902L6.36729 12.1803L0.489441 7.90983H7.75487L10 1Z" fill="#ffdee6"/></g><g transform="translate(858.73,442.38) scale(1.301) rotate(0)"><rect width="20" height="2" fill="#fffefd"/><rect y="4" width="20" height="2" fill="#fffefd"/><rect y="8" width="20" height="2" fill="#fffefd"/><rect y="12" width="20" height="2" fill="#fffefd"/><rect y="16" width="20" height="2" fill="#fffefd"/></g></g></svg>