<?xml version="1.0" standalone="no"?>
<!DOCTYPE svg PUBLIC "-//W3C//DTD SVG 20010904//EN"
 "http://www.w3.org/TR/2001/REC-SVG-20010904/DTD/svg10.dtd">
<svg version="1.0" xmlns="http://www.w3.org/2000/svg"
 width="512.000000pt" height="512.000000pt" viewBox="0 0 512.000000 512.000000"
 preserveAspectRatio="xMidYMid meet">

<g transform="translate(0.000000,512.000000) scale(0.100000,-0.100000)"
fill="#000000" stroke="none">
<path d="M2342 4728 c-157 -19 -416 -99 -494 -151 -21 -14 -38 -38 -47 -64
-13 -37 -13 -45 3 -88 35 -89 110 -107 237 -54 351 145 802 131 1151 -36 82
-40 129 -44 175 -15 88 53 82 179 -11 235 -110 66 -355 144 -536 170 -115 16
-361 18 -478 3z m387 -101 c30 -6 56 -18 59 -26 3 -10 -1 -12 -19 -8 -74 21
-178 29 -309 24 -178 -6 -294 -33 -446 -106 -66 -32 -104 -45 -104 -37 0 35
261 135 417 161 101 17 316 13 402 -8z"/>
<path d="M3888 3953 c-27 -4 -27 -6 -30 -86 -2 -65 -6 -82 -18 -82 -12 0 -16
17 -18 83 l-3 82 -1319 0 c-1113 0 -1319 -2 -1314 -14 3 -7 -2 -16 -11 -20
-12 -4 -19 0 -22 14 -5 18 -13 21 -60 19 -57 -3 -121 -37 -141 -76 -5 -10 -12
-74 -15 -143 -6 -124 -6 -126 -60 -250 -151 -345 -220 -681 -220 -1065 0 -398
75 -748 239 -1110 l59 -130 3 263 c2 252 1 266 -23 362 -50 196 -67 324 -72
542 -6 219 4 355 38 532 10 54 20 101 23 103 2 2 4 -47 4 -109 0 -80 4 -126
16 -157 9 -24 16 -67 16 -96 0 -148 185 -331 369 -365 31 -6 243 -10 493 -10
l440 0 -35 48 c-62 83 -72 122 -72 264 0 126 0 128 28 155 l27 28 280 3 c241
2 284 1 310 -13 35 -18 60 -67 60 -115 0 -28 3 -30 36 -30 28 0 35 -3 32 -17
-2 -12 -14 -19 -34 -21 -31 -3 -32 -5 -39 -60 -10 -79 -39 -151 -81 -200 l-36
-42 444 1 c496 0 523 3 632 69 108 65 202 195 225 310 5 25 16 72 25 105 13
48 16 113 16 340 0 166 4 274 9 265 20 -33 90 -251 114 -355 76 -320 77 -686
2 -1019 -29 -128 -85 -301 -134 -409 l-31 -69 0 -201 0 -202 30 45 c277 410
427 987 390 1499 -28 392 -139 761 -324 1075 -31 52 -56 104 -56 116 0 36 -28
78 -73 109 -48 32 -77 41 -119 34z m-2700 -227 c-2 -64 -6 -81 -18 -81 -12 0
-16 16 -18 74 -3 85 1 103 23 95 13 -5 15 -21 13 -88z m2493 65 l24 -19 -3
-224 c-3 -210 -4 -224 -24 -240 -25 -22 -57 -23 -86 -2 -22 15 -22 19 -22 240
0 211 1 225 20 244 25 25 61 26 91 1z m174 -196 c0 -68 -3 -80 -17 -83 -16 -3
-18 6 -18 83 0 77 2 86 18 83 14 -3 17 -15 17 -83z m-2670 -140 c0 -68 -3 -80
-17 -83 -16 -3 -18 6 -18 83 0 77 2 86 18 83 14 -3 17 -15 17 -83z m2670 -131
c0 -67 -3 -79 -17 -82 -16 -3 -18 6 -18 76 0 43 3 82 7 86 19 19 28 -7 28 -80z
m-2670 -140 c0 -67 -3 -79 -17 -82 -16 -3 -18 6 -18 76 0 43 3 82 7 86 19 19
28 -7 28 -80z m2499 -33 c23 -26 31 -90 17 -133 -24 -71 -108 -72 -132 -1 -14
44 -6 108 17 134 22 25 76 25 98 0z m171 -102 c0 -68 -3 -84 -15 -84 -12 0
-16 16 -18 74 -3 82 2 105 21 98 8 -2 12 -29 12 -88z m-2667 -143 c-2 -64 -6
-81 -18 -81 -12 0 -16 16 -18 74 -3 85 1 103 23 95 13 -5 15 -21 13 -88z
m2668 -103 c-7 -62 -31 -116 -49 -110 -13 5 -13 18 4 97 17 81 17 80 35 73 14
-5 15 -15 10 -60z m-2632 -100 c8 -16 31 -43 51 -62 27 -24 34 -36 26 -44 -25
-25 -131 82 -118 117 9 24 25 19 41 -11z m2516 -91 c0 -38 -150 -86 -158 -51
-2 12 9 19 44 28 26 7 56 19 68 27 28 19 46 18 46 -4z m-2175 -52 c0 -20 -154
-28 -166 -8 -15 23 3 29 84 26 65 -2 82 -6 82 -18z m270 0 c0 -12 -16 -15 -80
-15 -69 0 -80 2 -83 18 -3 16 4 18 80 15 66 -2 83 -6 83 -18z m275 0 c0 -18
-7 -20 -79 -20 -44 0 -83 5 -86 10 -14 22 10 30 86 30 72 0 79 -2 79 -20z
m1095 0 c0 -12 -17 -16 -79 -18 -78 -3 -105 5 -91 28 4 7 36 10 88 8 65 -2 82
-6 82 -18z m270 0 c0 -12 -16 -15 -80 -15 -69 0 -80 2 -83 18 -3 16 4 18 80
15 66 -2 83 -6 83 -18z"/>
<path d="M1703 2113 c-4 -10 -7 -210 -5 -445 l3 -428 109 0 110 0 0 433 c0
323 -3 436 -12 445 -8 8 -46 12 -105 12 -78 0 -93 -3 -100 -17z"/>
<path d="M3103 2113 c-4 -10 -7 -210 -5 -445 l3 -428 109 0 110 0 0 439 c0
391 -2 440 -16 445 -9 3 -56 6 -104 6 -75 0 -91 -3 -97 -17z"/>
<path d="M3737 1994 c-10 -10 -9 -72 2 -78 11 -7 23 66 13 76 -5 5 -11 5 -15
2z"/>
<path d="M1210 1940 c0 -22 5 -40 10 -40 6 0 10 18 10 40 0 22 -4 40 -10 40
-5 0 -10 -18 -10 -40z"/>
<path d="M3736 1844 c-9 -24 -7 -62 4 -69 6 -4 10 12 10 39 0 48 -4 56 -14 30z"/>
<path d="M1210 1800 c0 -22 5 -40 10 -40 6 0 10 18 10 40 0 22 -4 40 -10 40
-5 0 -10 -18 -10 -40z"/>
<path d="M3737 1713 c-10 -10 -8 -56 3 -73 7 -11 10 -2 10 33 0 48 -1 52 -13
40z"/>
<path d="M1217 1703 c-11 -10 -8 -83 3 -83 6 0 10 20 10 45 0 46 -2 50 -13 38z"/>
<path d="M3737 1573 c-11 -10 -8 -61 3 -68 6 -4 10 10 10 34 0 42 -2 46 -13
34z"/>
<path d="M1210 1530 c0 -22 5 -40 10 -40 6 0 10 18 10 40 0 22 -4 40 -10 40
-5 0 -10 -18 -10 -40z"/>
<path d="M3736 1434 c-9 -24 -7 -62 4 -69 6 -4 10 12 10 39 0 48 -4 56 -14 30z"/>
<path d="M1210 1390 c0 -22 5 -40 10 -40 6 0 10 18 10 40 0 22 -4 40 -10 40
-5 0 -10 -18 -10 -40z"/>
<path d="M3737 1303 c-10 -10 -8 -56 3 -73 7 -11 10 -2 10 33 0 48 -1 52 -13
40z"/>
<path d="M1210 1261 c0 -22 5 -43 10 -46 6 -4 10 12 10 39 0 25 -4 46 -10 46
-5 0 -10 -18 -10 -39z"/>
<path d="M1693 1082 c3 -49 3 -108 0 -130 -5 -35 -9 -42 -27 -42 -32 0 -46
-19 -46 -60 0 -42 14 -60 47 -60 22 0 23 -2 23 -100 l0 -100 115 0 115 0 0
100 c0 90 2 100 18 100 25 0 42 20 42 50 0 31 -25 70 -46 70 -11 0 -14 23 -14
130 l0 130 -116 0 -117 0 6 -88z m252 -202 c-3 -5 -46 -10 -95 -10 -49 0 -92
5 -95 10 -4 6 30 10 95 10 65 0 99 -4 95 -10z"/>
<path d="M3100 1040 l0 -130 -28 0 c-37 0 -52 -17 -52 -60 0 -42 14 -60 50
-60 25 0 25 0 22 -80 -3 -61 -7 -80 -18 -80 -8 0 -14 -4 -14 -10 0 -5 7 -10
15 -10 8 0 15 -4 15 -10 0 -6 45 -10 115 -10 l115 0 0 100 c0 90 2 100 18 100
27 0 42 20 42 56 0 34 -21 64 -46 64 -11 0 -14 24 -14 130 l0 130 -110 0 -110
0 0 -130z m250 -160 c0 -6 -38 -10 -94 -10 -53 0 -98 4 -101 10 -4 6 30 10 94
10 61 0 101 -4 101 -10z"/>
<path d="M3737 1163 c-11 -10 -8 -61 3 -68 6 -4 10 10 10 34 0 42 -2 46 -13
34z"/>
<path d="M1210 1120 c0 -22 5 -40 10 -40 6 0 10 18 10 40 0 22 -4 40 -10 40
-5 0 -10 -18 -10 -40z"/>
<path d="M3793 1039 c-18 -93 -72 -196 -142 -271 -77 -82 -143 -125 -244 -159
-43 -15 -74 -30 -68 -34 6 -3 11 -19 11 -35 0 -28 1 -28 38 -18 161 43 321
191 382 356 19 51 47 208 38 217 -2 2 -9 -23 -15 -56z"/>
<path d="M1164 1025 c21 -254 227 -477 479 -518 26 -4 27 -2 27 34 0 34 -3 39
-27 45 -85 19 -114 29 -178 62 -136 71 -243 208 -285 363 l-21 74 5 -60z"/>
<path d="M3738 1030 c-12 -28 -15 -70 -7 -76 11 -6 22 37 17 67 -3 17 -6 20
-10 9z"/>
<path d="M1217 1024 c-3 -3 -4 -11 -2 -17 2 -7 6 -25 9 -40 4 -15 10 -25 15
-22 5 2 5 21 1 41 -9 39 -14 47 -23 38z"/>
<path d="M3685 870 c-18 -34 -18 -40 -5 -40 8 0 40 51 40 65 0 16 -22 1 -35
-25z"/>
<path d="M1267 855 c9 -19 20 -35 25 -35 11 0 10 7 -7 40 -22 42 -38 37 -18
-5z"/>
<path d="M3605 760 c-16 -16 -24 -30 -19 -30 6 0 23 14 39 30 16 17 24 30 19
30 -6 0 -23 -13 -39 -30z"/>
<path d="M1330 772 c0 -13 45 -52 60 -52 8 0 2 12 -15 30 -28 30 -45 38 -45
22z"/>
<path d="M1440 690 c0 -8 51 -40 65 -40 17 0 0 19 -30 33 -19 9 -35 12 -35 7z"/>
<path d="M3488 681 c-16 -10 -25 -20 -22 -24 8 -7 74 24 74 35 0 13 -23 8 -52
-11z"/>
<path d="M1565 640 c-3 -5 7 -12 22 -16 15 -3 33 -7 40 -9 7 -2 15 0 18 5 3 5
-7 12 -22 16 -15 3 -33 7 -40 9 -7 2 -15 0 -18 -5z"/>
<path d="M3370 643 c-36 -7 -50 -23 -19 -23 34 0 69 11 69 21 0 9 -7 9 -50 2z"/>
<path d="M1970 620 c0 -5 18 -10 40 -10 22 0 40 5 40 10 0 6 -18 10 -40 10
-22 0 -40 -4 -40 -10z"/>
<path d="M2110 620 c0 -5 18 -10 40 -10 22 0 40 5 40 10 0 6 -18 10 -40 10
-22 0 -40 -4 -40 -10z"/>
<path d="M2240 620 c0 -5 20 -10 45 -10 25 0 45 5 45 10 0 6 -20 10 -45 10
-25 0 -45 -4 -45 -10z"/>
<path d="M2380 620 c0 -5 18 -10 40 -10 22 0 40 5 40 10 0 6 -18 10 -40 10
-22 0 -40 -4 -40 -10z"/>
<path d="M2520 620 c0 -5 18 -10 40 -10 22 0 40 5 40 10 0 6 -18 10 -40 10
-22 0 -40 -4 -40 -10z"/>
<path d="M2650 620 c0 -5 18 -10 39 -10 22 0 43 5 46 10 4 6 -12 10 -39 10
-25 0 -46 -4 -46 -10z"/>
<path d="M2790 620 c0 -5 18 -10 40 -10 22 0 40 5 40 10 0 6 -18 10 -40 10
-22 0 -40 -4 -40 -10z"/>
<path d="M2930 620 c0 -5 18 -10 40 -10 22 0 40 5 40 10 0 6 -18 10 -40 10
-22 0 -40 -4 -40 -10z"/>
<path d="M1948 540 l4 -40 558 0 558 0 4 40 4 40 -566 0 -566 0 4 -40z"/>
</g>
</svg>
